<svg width="602" height="584" viewBox="0 0 602 584" fill="none" xmlns="http://www.w3.org/2000/svg">
<path d="M522.737 112.177C509.925 99.7424 494.714 89.8787 477.972 83.149C461.23 76.4193 443.285 72.9556 425.163 72.9556C407.04 72.9556 389.095 76.4193 372.353 83.149C355.611 89.8787 340.4 99.7424 327.588 112.177L301 137.97L274.412 112.177C248.533 87.0722 213.435 72.9686 176.838 72.9686C140.24 72.9686 105.142 87.0722 79.2633 112.177C53.3851 137.281 38.8468 171.33 38.8468 206.833C38.8468 242.336 53.3851 276.386 79.2633 301.49L301 516.597L522.737 301.49C535.554 289.062 545.722 274.305 552.659 258.064C559.596 241.822 563.167 224.414 563.167 206.833C563.167 189.253 559.596 171.845 552.659 155.603C545.722 139.362 535.554 124.605 522.737 112.177Z" stroke="#F19EDC" stroke-width="4" stroke-linecap="round" stroke-linejoin="round"/>
</svg>
